Patient4_TMGait_0pt7_01_right_14_EMG.mot
version=1
nRows=37
nColumns=33
inDegrees=no
endheader
time	1LAddLong	2LGlutMax	3LGlutMed	4LIliopsoas	5LSemiMemb	6LBicFemLong	7LRecFem	8LVastMed	9LVastLat	10LGasMed	11LTibAnt	12lTibPost	13LPeroneusLong	14LSol	15LExtDigLong	16LFlexDigLong	17RAddLong	18RGlutMax	19RGlutMed	20RIliopsoas	21RSemiMemb	22RBicFemLong	23RRecFem	24RVastMed	25RVastLat	26RGasMed	27RTibAnt	28RTibPost	29RPeroneusLong	30RSol	31RExtDigLong	32RFlexDigLong
16.29	-0.000763	-0.040131	-0.14404	0.024719	-0.084686	0.25726	0.16708	-0.019989	-0.26794	-0.059967	-0.010834	0.006866	-0.034943	-0.099945	0.005798	0.005798	0.022278	0.00412	0.46509	0.072784	0.17761	0.18112	-0.33707	-0.014038	0.017395	0.0177	0.084686	-0.025177	0.034637	-0.35095	0.003052	-0.021973
16.291	0.043182	-0.04837	-0.11398	-0.007629	-0.054016	-0.03067	0.10376	-0.021515	-0.3125	-0.072021	0.036163	0.005951	-0.020905	-0.10895	0.007629	-0.014954	0.01297	-0.011749	0.44144	0.02182	0.17059	0.15778	-0.35965	0.013275	0.051422	0.024261	0.023804	-0.035706	0.21668	-0.48386	0.000763	-0.022125
16.292	0.065308	-0.033112	-0.075989	-0.019531	0.086823	-0.21988	0.16632	-0.021973	-0.28519	-0.036774	0.001221	0.005493	-0.027466	-0.090637	-0.002136	-0.004425	0.019989	-0.027924	0.2359	0.024719	0.14206	0.091858	-0.34286	-0.040131	0.043488	0.055695	0.029755	-0.034943	0.12222	-0.013428	0.002747	-0.020447
16.293	0.065155	0.025635	-0.093079	0.007324	0.065002	-0.3656	0.14801	-0.007172	-0.25238	-0.055389	0.01709	0.00412	-0.027924	-0.11307	0.002441	0.008698	0.025177	-0.050049	0.25345	0.000763	0.092163	0.041504	-0.28641	-0.016479	0.017548	0.04715	0.020142	-0.014191	-0.038147	0.81894	0.005493	-0.028381
16.294	0.066833	0.061798	-0.08667	0.009308	0.061951	-0.49957	0.14069	-0.010834	-0.22201	-0.013733	0.015106	0.009918	-0.014648	-0.093842	-0.002136	-0.003204	0.00824	-0.070801	0.25574	-0.014038	0.06073	0.13977	-0.29297	-0.023041	0.019836	0.024567	0.022125	-0.037689	-0.048065	1.1609	-0.001831	-0.02121
16.295	0.049896	0.11093	-0.058594	-0.001373	0.1181	-0.34225	0.16464	-0.007782	-0.16113	-0.058441	0.021667	0.00473	-0.017853	-0.10086	0.00824	0.012207	0.006104	-0.096741	0.57449	-0.053711	0.13367	0.23132	-0.31464	0.003662	0.007477	0.010071	0.021667	0.010834	-0.018463	0.84457	0.003357	-0.012512
16.296	0.033875	0.13184	-0.017242	0.011597	0.1001	-0.095978	0.15259	-0.002289	-0.083008	-0.04776	0.015869	0.002136	-0.013123	-0.11551	0.010223	-0.002899	0.004425	-0.098267	0.75836	-0.10544	0.14954	0.242	-0.31998	-0.028534	-0.006256	-0.040283	0.002899	0.019379	0.009003	0.7074	-0.000153	-0.011444
16.297	-0.000153	0.1149	-0.019073	0.012665	0.016785	0.088654	0.12344	0.005951	-0.14511	-0.047607	-0.000305	0.008087	-0.010986	-0.088501	0.00412	0.00824	0.005035	-0.059814	0.62546	-0.027466	0.15091	0.28412	-0.31494	-0.028687	0.009003	-0.043945	-0.045776	-0.000458	-0.004425	0.23697	0.00473	-0.002747
16.298	-0.00824	0.14175	0.013123	0.013885	-0.052795	0.043335	0.070496	-0.001678	-0.22003	-0.051727	-0.016632	0.016479	0.002441	-0.058136	-0.007629	0.01236	0.014648	-0.085144	0.52414	0.035095	0.1648	0.29251	-0.31921	-0.059204	0.027008	-0.000153	-0.023346	-0.007477	-0.22446	-0.18906	0.001373	-0.006714
16.299	-0.006256	0.074921	-0.000305	0.007324	-0.045624	-0.12268	0.071259	-0.003052	-0.18219	-0.055695	0.000916	0.005798	0.00824	-0.070038	-0.013885	0.024872	0.010986	-0.13031	0.42954	0.1294	0.20889	0.34485	-0.31876	-0.032196	0.0354	0.018768	0.067291	-0.001526	-0.14465	-0.21561	0.003815	-0.011292
16.3	-0.014038	-0.010223	0.012512	0.002136	0.023193	-0.084686	0.16357	0.003815	-0.14572	-0.05661	-0.005798	0.010834	0.012817	-0.085602	-0.017548	0.00473	-0.010376	-0.12817	0.38849	0.15945	0.22461	0.29358	-0.32989	-0.042572	0.027161	0.02594	0.068207	0.020905	-0.12177	-0.56274	0.002747	0.000153
16.301	-0.019989	-0.082245	-0.001678	0.012207	0.086365	-0.112	0.22446	-0.00885	-0.24307	-0.066833	-0.001831	0.014648	0.007019	-0.091553	-0.041199	-0.003204	-0.008545	-0.25024	-0.031433	0.13641	0.26794	0.16815	-0.32791	-0.039825	0.014038	0.022125	0.080109	0.029755	-0.22079	-0.57037	-0.002747	-0.001526
16.302	-0.016785	-0.05249	-0.000916	0.000305	0.10773	-0.03952	0.19486	-0.032959	-0.1239	-0.032654	0.001984	0.002136	0.012817	-0.067749	-0.048218	0.009766	-0.006409	-0.16739	0.34683	0.033264	0.21652	0.12589	-0.37872	-0.02533	0.03418	0.014191	0.087433	0.006561	-0.24185	-0.19486	0.002747	0.000305
16.303	-0.025177	-0.058594	0.029297	0.009918	0.059357	0.079956	0.28122	-0.049896	-0.11688	-0.033569	0.002289	0.007935	0.015259	-0.069733	-0.000305	-0.000763	0.003204	-0.20569	0.63828	-0.032349	0.19028	0.13443	-0.39856	-0.0737	0.015259	0.012665	0.087891	-0.007629	-0.14252	-0.10147	0.00061	-0.001831
16.304	0.015564	-0.028534	-0.000916	-0.002594	0.088806	0.14969	0.29022	-0.067139	-0.066223	-0.03006	0.011749	0.0177	0.002289	-0.097351	0.017242	0.005646	0.025635	-0.24704	0.81558	-0.10422	0.096741	0.13275	-0.37582	-0.049591	-0.012207	0.018616	0.08728	-0.00473	-0.13184	-0.23819	-0.000153	-0.010071
16.305	0.061188	0.043182	-0.023651	0.015717	0.045471	0.3038	0.076141	-0.057983	0.037384	-0.035248	0.012207	0.005493	0.00412	-0.11536	0.002594	0.001373	0.03479	-0.2385	0.89035	-0.08728	0.044861	0.17029	-0.36133	-0.11429	-0.018921	0.020294	0.079651	-0.007629	-0.22842	-0.26047	0.002899	-0.006714
16.306	0.048065	0.096588	-0.027771	0.007019	-0.023804	0.4538	0.019684	-0.009155	0.11337	-0.03006	0.006256	-0.000305	0.006561	-0.1384	-0.016937	-0.003204	0.010529	-0.27313	0.095825	-0.002136	0.12817	0.16785	-0.37964	-0.11948	-0.043182	0.022278	0.071716	-0.01236	-0.19211	-0.32349	0.001984	-0.017548
16.307	0.049133	0.15625	-0.020142	0.007629	0.021667	0.42023	-0.058594	0.019531	0.2771	-0.046387	-0.00351	0.00824	-0.006409	-0.1326	0.015869	0.007782	0.000763	-0.24612	0.30685	-0.04364	0.027313	0.19989	-0.41626	-0.09613	-0.020599	0.023804	0.070648	-0.0177	-0.1088	-0.29953	0.003204	-0.015259
16.308	0.047607	0.13412	-0.027008	0.009613	0.019226	0.19592	-0.094147	0.020142	0.34958	-0.047607	0.005035	0.003357	0.006561	-0.084839	0.072937	0.012817	-0.010529	-0.21744	0.77484	-0.084686	0.035858	0.13565	-0.40527	-0.086823	-0.04837	0.019226	0.10376	-0.022278	-0.11932	-0.21179	-0.001678	-0.016479
16.309	0.028534	0.10895	-0.04715	-0.004883	-0.031433	0.047302	-0.092773	-0.007629	0.3096	-0.039825	0.009918	0.002289	0.006104	-0.059509	0.076599	0.009308	-0.00473	-0.18631	1.2231	-0.17807	0.09613	0.11353	-0.4245	-0.044861	-0.043793	0.003662	0.10819	-0.025177	0.1831	-0.10025	0	-0.014954
16.31	0.016785	0.11246	-0.070953	0.013123	0.028534	0.19028	-0.051727	0.010223	0.28549	-0.029449	0.010529	0.010223	0.017242	-0.091553	0.037994	0.000305	0.006104	-0.21515	0.78171	-0.098877	0.10498	0.22064	-0.38223	-0.063171	-0.053101	-0.043793	0.089417	-0.024261	0.28442	-0.23895	0.000916	-0.023041
16.311	-0.024567	0.14526	-0.073395	0.003052	0.066376	0.19943	0.001373	-0.019989	0.23056	-0.020905	0.006409	0.004883	0.013428	-0.077667	0.033264	0.009155	0.002289	-0.20737	0.91629	0.00061	0.19745	0.21332	-0.39337	-0.059509	-0.056152	-0.060425	0.045166	-0.023651	0.19211	-0.32135	0.00061	-0.016785
16.312	-0.028534	0.25253	-0.083618	-0.000305	0.020142	-0.17136	0.12451	-0.054016	0.20844	-0.025787	0.000305	0.001373	0.018768	-0.059814	-0.021973	0.006104	0.019684	-0.23361	1.1583	0.058441	0.10895	0.10025	-0.37323	-0.018158	-0.050049	0	0.012207	-0.029449	-0.040436	-0.18524	0.013123	-0.010071
16.313	-0.028381	0.35843	-0.070496	0.005188	-0.029907	-0.55084	0.24277	-0.10284	0.1796	-0.03067	-0.007782	0.003052	0.012665	-0.057831	-0.028076	0.003204	0.0383	-0.34637	0.39978	0.11139	0.042419	-0.011902	-0.32028	-0.074463	-0.036469	-0.039215	0.047607	-0.018005	-0.29938	0.031281	-0.000305	-0.009003
16.314	-0.028076	0.36331	-0.067444	0.004578	-0.089111	-0.38574	0.2475	-0.10468	0.048523	-0.015411	0.007477	0.000153	0.019531	-0.077209	-0.010223	0.00351	0.080414	-0.36102	0.35263	0.10391	0.094147	0.028076	-0.28839	-0.12894	-0.034637	-0.012817	0.024567	0.001373	-0.12299	0.21866	0.005493	-0.002899
16.315	-0.02594	0.31815	-0.001984	0.013733	-0.16953	-0.034485	0.22751	-0.071869	0.062561	-0.012665	0.007935	-0.003052	0.022125	-0.084686	0.012512	-0.002136	0.039673	-0.37994	0.3627	0.034485	0.14191	0.15289	-0.31891	-0.092621	-0.026093	0.007019	-0.009766	-0.062103	0.087891	0.16434	0.004883	-0.01297
16.316	-0.023956	0.33722	-0.082245	0.017242	-0.034485	0.18219	0.14984	-0.035095	0.072479	-0.024567	0.000305	-0.015106	0.027161	-0.070648	0.023041	-0.001373	-0.014343	-0.35538	0.68878	0.14832	0.20996	0.1886	-0.27908	-0.098114	-0.020905	-0.016479	-0.037994	-0.43533	-0.10407	-0.10376	-0.003662	-0.009155
16.317	0.003815	0.39368	-0.087738	0.030518	0.022888	0.14725	0.092163	-0.09201	0.036774	-0.019226	0.000916	-0.009003	0.013123	-0.077209	0.010376	0.011749	-0.00946	-0.37125	0.61676	0.20218	0.15198	0.26077	-0.34271	-0.11017	0.003662	-0.030212	-0.027161	0.0354	-0.024109	0.021667	-0.003204	-0.008392
16.318	0.024414	0.38452	-0.094299	0.021362	-0.012817	0.068512	0.068207	-0.081787	-0.095367	-0.032959	0.007019	-0.008545	0.005798	-0.083313	-0.002899	0.008392	-0.022888	-0.45517	0.46722	0.15411	0.14908	0.28915	-0.3981	-0.056915	0.007477	0.01297	-0.015564	0.39246	0.001678	-0.051727	0.001831	-0.004272
16.319	0.017548	0.31204	-0.092773	0.001678	-0.047302	0.13046	0.089569	-0.03891	-0.12604	-0.023346	0.016937	-0.00885	0.007019	-0.062561	-0.005798	0.005951	-0.016632	-0.41931	0.43228	0.022888	0.14862	0.29205	-0.439	-0.00824	0.017853	0.001373	-0.023499	-0.058899	0.12299	-0.19516	0.001526	-0.005341
16.32	0.011597	0.30258	-0.075836	0.004883	-0.027771	0.046844	0.10864	-0.008545	-0.092163	-0.007324	0.006561	-0.015717	0.001678	-0.059509	-0.007172	0.000305	0.011292	-0.38681	0.35568	-0.024719	0.12833	0.17609	-0.45685	-0.007172	0.028992	0.068817	-0.013428	-0.24796	0.22003	-0.33005	0.005188	-0.011902
16.321	0.012665	0.26245	-0.03952	0.005341	0.009003	-0.12756	0.02655	-0.002136	-0.019836	-0.016327	0.004578	-0.01297	0.010681	-0.041809	-0.010681	-0.003204	0.040741	-0.38834	0.4599	-0.082092	0.08194	0.14557	-0.43152	-0.039673	0.026245	0.087738	0.018768	0.23605	0.18387	-0.045929	0.00351	-0.02182
16.322	0.006714	0.23789	0.068054	0.001678	0.009155	-0.15595	0.068054	0.020447	-0.060883	-0.029755	-0.001373	-0.014648	0.023651	-0.052795	-0.016327	0.011749	0.049896	-0.40131	0.4924	-0.12421	0.20615	0.17593	-0.47806	0.016174	0.023346	0.048065	0.067139	0.10178	0.074005	0.54535	0.003815	-0.02533
16.323	0.007935	0.23834	0.19379	0.00473	-0.03479	-0.20111	0.14679	0.025177	-0.18402	-0.002441	0.006409	-0.007172	0.027313	-0.031586	-0.016174	0.006866	0.056915	-0.42084	0.44311	-0.02655	0.24353	0.17639	-0.43793	-0.024109	0.010529	0.029907	0.016632	0.006409	0.028076	0.54352	0.001831	-0.032043
16.324	0.010071	0.25559	0.43793	0.010986	-0.072632	-0.24277	0.15762	0.013428	-0.18295	-0.00061	0.003204	-0.018158	0.011444	-0.028992	-0.010071	0.010376	0.072632	-0.43472	0.44586	-0.038147	0.19836	0.21957	-0.42282	0.003357	0.012207	0.026398	-0.072784	-0.007172	-0.03891	0.25513	0.001373	-0.027771
16.325	0.021057	0.28442	0.34302	0.00824	-0.13092	-0.13367	0.18295	-0.003357	-0.15991	-0.004272	0.018005	-0.015411	0.009613	-0.042419	-0.007019	0.000916	0.035248	-0.42404	0.46356	0.066833	0.26215	0.20874	-0.41122	-0.088959	-0.009308	0.028381	-0.095367	-0.002899	-0.11856	0.1828	0.000763	-0.023956
16.326	0.01236	0.33447	0.22385	0.020294	-0.14786	-0.13458	0.215	-0.026093	-0.092316	-0.003967	0.02594	-0.0177	-0.000305	-0.056152	-0.005341	0.014801	0.021057	-0.42435	0.44159	0.10437	0.19821	0.16159	-0.42236	-0.060883	-0.012665	0.0177	0.1413	0.014801	-0.099182	-0.00061	0.003815	-0.032654
